<?xml version="1.0" encoding="UTF-8" standalone="no"?>
<!-- Created with Inkscape (http://www.inkscape.org/) -->

<svg
  xmlns:dc="http://purl.org/dc/elements/1.1/"
  xmlns:cc="http://creativecommons.org/ns#"
  xmlns:rdf="http://www.w3.org/1999/02/22-rdf-syntax-ns#"
  xmlns:svg="http://www.w3.org/2000/svg"
  xmlns="http://www.w3.org/2000/svg"
  xmlns:sodipodi="http://sodipodi.sourceforge.net/DTD/sodipodi-0.dtd"
  xmlns:inkscape="http://www.inkscape.org/namespaces/inkscape"
  width="128"
  height="128"
  viewBox="0 0 128 128"
  version="1.1"
  id="svg1034"
  inkscape:version="0.92.3 (2405546, 2018-03-11)"
  sodipodi:docname="Blacksmith.svg"
  inkscape:export-filename="C:\LEON_PROGRAMMING\Bevy stuff\Games\grand_strategy\assets\Custom_Retina\Blacksmith.png"
  inkscape:export-xdpi="96"
  inkscape:export-ydpi="96">
 <defs
   id="defs1028" />
 <sodipodi:namedview
   id="base"
   pagecolor="#ffffff"
   bordercolor="#666666"
   borderopacity="1.0"
   inkscape:pageopacity="0.0"
   inkscape:pageshadow="2"
   inkscape:zoom="1.979899"
   inkscape:cx="46.035616"
   inkscape:cy="98.944576"
   inkscape:document-units="px"
   inkscape:current-layer="layer1"
   showgrid="false"
   units="px"
   inkscape:window-width="1920"
   inkscape:window-height="1001"
   inkscape:window-x="-9"
   inkscape:window-y="-9"
   inkscape:window-maximized="1"
   showguides="true"
   inkscape:guide-bbox="true" />
 <metadata
   id="metadata1031">
  <rdf:RDF>
   <cc:Work
     rdf:about="">
    <dc:format>image/svg+xml</dc:format>
    <dc:type
      rdf:resource="http://purl.org/dc/dcmitype/StillImage" />
    <dc:title></dc:title>
   </cc:Work>
  </rdf:RDF>
 </metadata>
 <g
   inkscape:label="Layer 1"
   inkscape:groupmode="layer"
   id="layer1"
   transform="translate(0,-872)">
  <path
    style="fill:none;fill-opacity:1;stroke:#000000;stroke-width:4.08247995;stroke-miterlimit:4;stroke-dasharray:none;stroke-opacity:1"
    d="M 52.613179,930.32838 C 39.615105,929.59061 16.240605,920.04246 9.6060247,911.56865 c 9.9171713,0.77984 33.8337303,0.33648 43.7728723,0.38278 l 1.5e-5,-5e-4 c 9.878221,-0.20682 47.419678,-0.10727 61.766968,0 0.0201,1.6671 0.18853,5.36997 0.2539,7.76991 -9.94156,1.96684 -24.094172,5.75321 -30.371679,15.12663 -2.490369,7.46939 9.384307,10.83501 17.643119,13.04904 0.27167,3.02844 0.62002,7.71465 0.58236,10.57293 -17.843156,-0.20451 -33.489763,-0.25313 -49.61944,-0.32104 -2.556998,-0.41983 -1.576377,-5.47331 -1.020961,-7.65678 1.287681,-3.93739 8.993404,-4.30428 6.636125,-19.65316 -1.72546,-0.61045 -5.65609,-0.43295 -6.636125,-0.51012"
    id="path5119"
    inkscape:connector-curvature="0"
    sodipodi:nodetypes="ccccccccccccc" />
  <path
    style="fill:none;fill-opacity:1;stroke:#000000;stroke-width:2.04509902;stroke-miterlimit:4;stroke-dasharray:none;stroke-opacity:1"
    d="m 53.378912,911.95074 -1e-5,18.95189"
    id="path5513-5"
    inkscape:connector-curvature="0"
    sodipodi:nodetypes="cc" />
 </g>
</svg>
